/* XPM */
static char *bitcoin32_xpm[] = {
/* columns rows colors chars-per-pixel */
"32 32 426 2",
"*  c Black",
"uX c #8B5A66",
"6. c #000002",
"%. c #000305",
"s. c #000307",
"Bo c #826F73",
";O c #000008",
"tX c #00060A",
"-o c #7C7075",
"Mo c #737678",
"^. c #00060B",
"x. c #00090E",
"m. c #A39281",
"4X c #CDC197",
"+X c #AC988E",
"V. c #88838C",
"oX c #001522",
"   c None",
"xX c #001523",
"H. c #001223",
"%X c #E5D8A6",
"TX c #FAE5AA",
"|X c #F1E2AA",
"Po c #91ADA6",
"yX c #091B30",
"b. c #031F36",
"SX c #BD1522",
"lX c #D51A22",
"|. c #A81A27",
"kX c #B71C27",
"Eo c #A8202C",
"eX c #7B2334",
"9. c #002A46",
"ho c #302B42",
"A. c #032E4A",
"W. c #00304B",
"f. c #002A4B",
"vo c #694154",
"O. c #8F8514",
"kO c #6B640E",
"t  c #71690F",
"!  c #655F0E",
"1. c #625B0D",
"g  c #534D0B",
"XX c #5C560D",
"o. c #59520C",
"C  c #4A440A",
"O  c #47430A",
"hO c #353107",
"<  c #3E3A09",
"oo c #605664",
"M  c #2F2C06",
"$. c #262304",
"a  c #201E04",
"W  c #262305",
"lO c #111002",
"i  c #171503",
"I  c #0B0B02",
"5. c #050300",
"U  c #020200",
"dX c #93706E",
"`o c #938E8E",
"to c #757E8C",
"io c #CCC29D",
"N. c #CFC09D",
"Lo c #7E9098",
" o c #FFE8A7",
"]. c #F3E1A7",
"B. c #81979C",
"#X c #FFEEAB",
"ZX c #FFF1AE",
"[. c #8AA6A4",
"@o c #C21B24",
"$o c #D11A23",
"Jo c #3B333E",
"sX c #171839",
"Z. c #8C2131",
"Ao c #47283E",
"HX c #41293F",
"rX c #322A42",
"l. c #2F2C45",
"&o c #262F4A",
"=X c #29334C",
"aX c #263853",
"L  c #C7BA1B",
"/  c #BEB11A",
"D  c #B2A718",
"(  c #A09516",
"p. c #887E12",
"VO c #736B0F",
"X  c #827912",
"z  c #7C7411",
"q  c #736B10",
"9  c #5E580C",
"*O c #5E580D",
"A  c #4F4A0A",
"s  c #464109",
"+O c #625864",
"@  c #46410A",
">. c #403C09",
"u. c #373307",
"7O c #100E00",
"uO c #282506",
"aO c #040400",
"a. c #010000",
"bo c #5F5A6B",
"OO c #7D7678",
".O c #13090D",
"S. c #010C15",
"(. c #BFA18E",
"M. c #D1B995",
"7. c #011521",
"Ko c #221A25",
"WX c #D7CDA2",
"MX c #89A19F",
"*o c #2B1A29",
".X c #012134",
"%O c #01273C",
"#o c #E2181E",
"wo c #403039",
"/X c #97202E",
";X c #732335",
"do c #40273E",
"9X c #072646",
"g. c #13304D",
"gX c #523C4E",
"=o c #3D4A5A",
"B  c #BAAE19",
"T  c #B1A518",
"F. c #A29716",
"|o c #8A8013",
"To c #9D4C55",
"Go c #847B12",
"t. c #6F680F",
"@. c #756D10",
"iO c #57510C",
"#  c #5D560D",
"2  c #4E480A",
"2O c #423E09",
"4  c #3C3908",
"eo c #645161",
"MO c #393508",
"~o c #2A2705",
"jO c #2A2706",
"qo c #0C0B01",
"|  c #1B1904",
"l  c #151403",
"k  c #121002",
"u  c #0C0B02",
"!. c #060601",
"]X c #000101",
"cX c #000102",
"&. c #000104",
":O c #00010A",
"7X c #8B7C7A",
">O c #00040E",
"jo c #000A11",
"{o c #060C12",
"PX c #000A16",
"/o c #737D8C",
"<o c #E8D4A1",
"CX c #D3C7A0",
"iX c #76969B",
"_. c #FDE4A6",
"YX c #E5D6A5",
"nX c #00162B",
")o c #DCD9AD",
"Y. c #619BA8",
"8. c #00253C",
"z. c #03263D",
"4o c #B41C27",
"fo c #A21F2B",
"C. c #D2262E",
"+o c #5A283C",
">X c #002E49",
"(X c #00314E",
"So c #003451",
"!X c #543247",
"-X c #2D344C",
"}. c #BA3941",
"h. c #273852",
"e  c #9B9015",
"b  c #867D12",
"tO c #716A0F",
"!o c #776F10",
"{X c #39475F",
"nO c #746B10",
"p  c #68610E",
"S  c #504A0A",
"5O c #171600",
"K  c #444009",
"LX c #44400A",
"n  c #413C09",
"0  c #3B3708",
"vX c #2C2906",
"d  c #262405",
"_  c #1D1B03",
"J. c #696068",
"ko c #050400",
"*X c #5D5F6A",
"x  c #141203",
"G. c #0E0D02",
"=. c #080500",
"P  c #080801",
"4. c #050401",
"mX c #846F71",
"xo c #0E0709",
"Q. c #02090E",
"BX c #6F7A7E",
"Yo c #8D7B80",
"Xo c #BAB191",
"Do c #021826",
"'. c #FFE9A6",
",o c #EDDDA6",
"EX c #FFE9A8",
".o c #FFECA9",
"&X c #C6C1A1",
"Io c #99ACA0",
">o c #D8D0A5",
"P. c #FFECAA",
"3X c #ABAFA0",
"). c #FFEFAC",
"L. c #FFEFAD",
"K. c #F6DDA8",
"UX c #CCC9A7",
":o c #8AA4A3",
"6o c #E3181E",
"/. c #32253E",
":X c #50293E",
"%o c #2C2C44",
"OX c #832539",
"k. c #4A3046",
"2X c #953142",
"co c #6B4454",
"po c #47535F",
"#. c #9D9215",
"lo c #978D14",
"yO c #887F12",
"8  c #887F13",
";  c #7F7611",
",. c #736C10",
"Ro c #B34A54",
"V  c #4C470A",
"wO c #373407",
"h  c #433E09",
"%  c #3D3908",
"Fo c #2E2B06",
"bX c #3A3508",
"Z  c #343007",
"3O c #282606",
",  c #1F1D04",
"bO c #0A0A01",
"{  c #100F02",
"+. c #070601",
"*. c #040200",
"2. c #010100",
",X c #010406",
"QX c #6E6F75",
"=O c #131015",
"$X c #F2DDA6",
"U. c #A4B4A3",
"RX c #F8E8AB",
"1X c #041A2C",
"_X c #3D1E2C",
"DX c #E5171D",
"5o c #BE1C26",
"7o c #5E2639",
"hX c #AC2B35",
" X c #073350",
"XO c #553B4E",
"'o c #794151",
"zo c #B7AB19",
"G  c #AEA218",
"H  c #A89D17",
".  c #9F9416",
"pX c #434D5F",
"y. c #877D12",
"c. c #7B7311",
"c  c #6C650F",
"J  c #635C0D",
"dO c #4E490A",
"pO c #544E0B",
"<X c #4E490B",
"Y  c #48440A",
"^  c #454009",
"xO c #302D06",
"8O c #1B1701",
"3  c #3F3B09",
"5  c #363207",
"`X c #363208",
">  c #121102",
"-. c #0F0D01",
" O c #030300",
"e. c #0C0C02",
"&  c #090801",
"5X c #6D736F",
"6  c #030301",
"v. c #000203",
"NX c #5B6171",
"AX c #977271",
"<O c #00080D",
",O c #00080F",
"2o c #7C8487",
"9o c #120E16",
"w. c #00111D",
"KX c #15151F",
"8X c #A6A796",
"{. c #738D98",
"1o c #D3C8A2",
"fX c #E8DEAB",
"_o c #D6D2AA",
"R. c #DE131A",
"d. c #002037",
"q. c #002339",
"0. c #002943",
"Vo c #662437",
"zX c #692537",
"#O c #002C48",
"$O c #00324D",
"0X c #27364D",
"so c #36354C",
"Wo c #003553",
"JX c #1B3551",
"Oo c #454659",
"v  c #BFB21A",
"oO c #514A5B",
"0o c #A19616",
"rO c #928814",
"ao c #3C5262",
"3. c #837A12",
"vO c #7A7111",
"R  c #746C10",
":. c #6E670F",
"o  c #5F590D",
";. c #504B0B",
"fO c #413D09",
"-  c #383407",
"NO c #383408",
"D. c #322F07",
"}o c #201D04",
"i. c #232105",
")  c #110F02",
"eO c #050501",
"y  c #0B0A02",
"X. c #020100",
"T. c #9F646C",
"-O c #02010A",
"VX c #9C7876",
"&O c #050B11",
"Ho c #14161B",
"`. c #FFE7A7",
"I. c #FFEAA8",
"@X c #FFEDAD",
"Uo c #9CB4A7",
"no c #87A7A6",
"[X c #1A2737",
"Co c #A11826",
"FX c #E0181F",
"^X c #E6171E",
"~X c #C21D26",
"go c #D41A23",
"^o c #443241",
"ro c #5C283B",
"8o c #1A2A43",
"]o c #232A43",
"j. c #3E3C51",
"N  c #C1B41A",
"F  c #B8AB19",
"`  c #918612",
".. c #8B8113",
"$  c #7F7711",
"mO c #766E10",
"n. c #505160",
"sO c #58520C",
"1  c #524D0B",
"BO c #4F490B",
"6O c #1C1A01",
"Q  c #403B08",
"+  c #3A3608",
"~  c #312D06",
"}  c #2B2806",
"7  c #252305",
"cO c #1C1A04",
"qO c #0D0C02",
"E  c #070701",
"4O c #040301",
"No c #808B86",
"}X c #989990",
"uo c #D1CDA5",
"mo c #B0B9A3",
"(o c #8CA4A2",
"yo c #8FABA4",
"Qo c #012033",
"Zo c #CA1B24",
"GX c #D61922",
"jX c #AF212B",
"3o c #8B2433",
"@O c #1F2D46",
"[o c #0D3049",
"wX c #0A2F4A",
"E. c #222E48",
"qX c #28334B",
")X c #34314A",
"6X c #313F54",
"<. c #CFC01C",
"r  c #C9BB1B",
" . c #A29616",
"'  c #756C0E",
"IX c #404D5F",
";o c #614659",
"~. c #7E7511",
"'X c #5A540C",
"1O c #514B0B",
"]  c #484209",
"[  c #454109",
"m  c #423D09",
"r. c #3C3808",
"gO c #2D2A06",
"0O c #272505",
":  c #332F07",
"zO c #242105",
"9O c #151302",
"w  c #181703",
"j  c #151303",
"f  c #0F0E02",
"=  c #090901",
/* pixels */
"                      . X o O + + @ # $                         ",
"                    % & * * * * * * * * = - ;                   ",
"                : * * > , < 1 2 3 4 + 5 6 * * 7 8               ",
"            9 * * * 0 q w e r t y u i p a s s d f g             ",
"          h j , k l z x * c v b n m i * M N B V C Z @           ",
"        A S D F G H J * * K L ; P I U * * Y T R E W Q n         ",
"      ! ~ ^ 0 h c / ( ) * _ ` ' ] [ 0 { } * |  ...& X.* o.      ",
"    O.+.* * * * * @.#.$.* * %.&.*.=.-.& ;.:.>.,.<.1.* * 2.3.    ",
"    M * * * * * * 4.5.6.7.8.9.0.q.w.6.* * e.r.t.y.u.* * * i.    ",
"  p.a.* * * * * * * s.d.f.g.h.j.k.l.z.x.* * * * * * * * * * c.  ",
"  >.* * * * * * * v.b.n.m.M.N.B.V.C.Z.A.S.* * * * * * * * * D.  ",
"F.G.* * * * * * * H.J.K.L.P.I.U.Y.T.R.E.W.Q.* * * * * * * * !.  ",
"~.* * * * * * * ^./.(.)._.`.'.].[.{.}.|. X.X* * * * * * * * * t ",
"XX* * * * * * * oXOX+X@X#X$X%X&X*X=X-X;X:X>X,X* * * * * * * * <X",
"[ * * * * * * * 1X2X3X4X5X6X7X8X9X0XqXwXeXrXtX* * * * * * * * u.",
"+ * * * * * * * yXuXiXpXaXsXdXfXgXhXjXkXlXzXxXcX* * * * * * * vX",
"bX* * * * * * * nXmXMXNXBXVXCXZXAXSXDXFXGXHXJXKX* * * * * * * } ",
"LX* * * * * * * PXIXUXYXTXRXEXWXQX!X~X^X/X(X)X_X* * * * * * * `X",
"'X* * * * * * ]X[X{X}X|X o.oXoooOo+o@o#o$o%o&o*o* * * * * * * V ",
"z * * * * * * ]X=o-o;o:o>o,o<o1o2o3o4o5o6o7o8o9o* * * * * * * :.",
"0oqo* * * * * * woeorotoyouoiopoaosodofogohojo* * * * * * * kolo",
"zor.* * * * * * xocovobonomoMoNoBoVoCoZoAoSoDo* * * * * * * Fo  ",
"  Go* * * * * * * HoJoKoLoPoIoUoYoToRoEoW.WoQo* * * * * * * !o  ",
"    ~o* * * * * * * * * ^o/o(o)o_o`o'o]oSo[o{o* * * * * * }o    ",
"    |o O* * * * * * * * .OXOoOOO+O@O#O$O%O&Oa.* * * * * *       ",
"      *O* * * * * * * * * =O-O;O:O>O,O<O* * * * * * * * 1O      ",
"        2O* * u 3O4O* * * 5O6O7O*.8O5.* 9O0O* f qO* * wO        ",
"          m * x #.qO* eO,.0 } + | rOtO* ^ yOt.p uO* wO          ",
"            iO= pO!.* & rO7 * aOsOdO( fOgOhOjOkOlOV             ",
"              8 zO* * * w Q D.- xO2.i.^ & !.* cO;               ",
"                T vO: bO* * * * * * * * !.vXnO                  ",
"                      #.mO1OMOvXvXNOBOVO                        "
};
