/* XPM */
static char *bitcoin16_xpm[] = {
/* columns rows colors chars-per-pixel */
"16 16 151 2",
"i  c Black",
"p  c #A39F6D",
";. c #5A283C",
"e  c #1F2205",
"$. c #452E3A",
"1. c #1E181F",
"C  c #2A1A2B",
"C. c #9C986C",
"v. c #1A1803",
"z. c #1F1C04",
"u  c #70690F",
")  c #E91219",
"$  c #403B08",
"x. c #3B3708",
"B. c #29271A",
"j  c #0B0900",
"6  c #8B864E",
"/  c #D8CEA0",
"t  c #2C2806",
"k. c #A9A470",
"9. c #A9A473",
"v  c #6A6A69",
"T  c #752435",
"a. c #131100",
"4. c #AC8B85",
"2  c #090901",
"^  c #B5A98D",
"=. c #5A4555",
",  c #343006",
"8  c #2F2C06",
"6. c #03304D",
"w  c #3C3E0D",
">. c #9D9968",
"5. c #763448",
"[  c #5C5935",
"3  c #504B0B",
"P  c #90908B",
"X. c #5F4353",
" . c #FCF1B1",
">  c #3C3808",
"w. c #252D38",
"N  c #00111E",
"q. c #403B41",
"f. c #373104",
"   c None",
"E  c #000B11",
"d  c #08253E",
"+  c #A09D74",
"c. c #44400A",
"]  c #2D2C1A",
",. c #0F0E04",
"A  c #FFF2AC",
"U  c #9D9687",
"H  c #000204",
"%  c #6F670F",
":  c #6A630F",
"O. c #8E2333",
"t. c #9E9A69",
"9  c #776F10",
"y  c #726B10",
"o. c #C51721",
"l. c #292606",
"J  c #514F2E",
"S  c #DFD4A5",
"I  c #444959",
"N. c #33311B",
"Q  c #33311C",
"F  c #6E2E41",
"'  c #010000",
"d. c #272301",
"V  c #5E5B36",
";  c #5C550D",
"O  c #5E5B37",
"L  c #4B3B4A",
".  c #5E5B39",
"M. c #545032",
"m  c #A16C77",
"+. c #182032",
"*  c #2A2706",
"#. c #A7A372",
"&. c #AABCAA",
"o  c #39361C",
"q  c #020400",
"a  c #111004",
"s. c #373302",
"p. c #322F04",
"%. c #67566B",
"b. c #373308",
"Y  c #5F3C4A",
"y. c #7D7A4E",
"2. c #6B737E",
"Z  c #E7CAA2",
"j. c #736F46",
"7  c #191803",
"=  c #232005",
"@. c #504D2D",
"0. c #180E1A",
"M  c #6A2538",
"V. c #504D2F",
"r. c #000A15",
"g. c #3F3B09",
"}  c #3E4051",
"8. c #0A0901",
"i. c #050501",
"{  c #000102",
"1  c #302C06",
"c  c #000109",
"-. c #A11C2A",
"4  c #867D12",
"R  c #742436",
"K  c #35331D",
"~  c #A3A99A",
"u. c #2E2C06",
"3. c #ABBAAC",
"-  c #333009",
"<. c #080607",
"g  c #232036",
"#  c #1F1D04",
".. c #B7B092",
"m. c #A19D70",
"h  c #010B14",
"W  c #2E2C1A",
"G  c #1A283F",
"h. c #060601",
"&  c #272505",
"(  c #914C52",
"!  c #313F4B",
"X  c #31301C",
"l  c #343107",
"f  c #162E4C",
"n. c #A29E6A",
"5  c #201E04",
"7. c #020C13",
"e. c #00182D",
"_  c #782639",
"<  c #AB9E16",
"z  c #0C0B03",
"|  c #A9A292",
"`  c #1B263A",
"s  c #000C10",
"k  c #2D2A06",
":. c #000C14",
"0  c #585109",
"x  c #AAA676",
"B  c #A09B6B",
"b  c #D9CD9F",
"r  c #191701",
"n  c #BEC2A5",
"*. c #91988A",
"@  c #0F0F06",
"D  c #5D737F",
/* pixels */
"            . X o O +           ",
"        @ # $ % & * = -         ",
"      ; : > , < 1 2 3 4 5 6     ",
"    7 8 9 0 q w e r t y u i p   ",
"  a i i i s d f g h j k l i z   ",
"x i i i c v b n m M N i i i i B ",
"V i i i C Z A S D F G H i i i J ",
"K i i i L P I U Y T R E i i i W ",
"Q i i i ! ~ ^ / ( ) _ ` ' i i ] ",
"[ i i { } |  ...X.o.O.+.' i i @.",
"#.i i i $.%.&.*.=.-.;.:.i i i >.",
"  ,.i i <.1.2.3.4.5.6.7.i i 8.  ",
"  9.i i i i 0.q.w.e.r.i i i t.  ",
"    y.2 u.i.p.a.s.d.f.g.h.j.    ",
"      k.l.i > z.x.c.v.b.n.      ",
"          m.M.N.B.V.C.          "
};
